<svg xmlns="http://www.w3.org/2000/svg" viewBox="0 0 32 32" fill="none">
  <rect width="32" height="32" rx="6" fill="#ffffff"/>
  <g fill="#012068">
    <circle cx="16" cy="6.5" r="1.35"/>
    <circle cx="11" cy="8.5" r="1.2"/>
    <circle cx="21" cy="8.5" r="1.2"/>
    <circle cx="8" cy="12.5" r="1.1"/>
    <circle cx="24" cy="12.5" r="1.1"/>
    <circle cx="6.5" cy="16" r="1"/>
    <circle cx="25.5" cy="16" r="1"/>
    <circle cx="8" cy="19.5" r="1.1"/>
    <circle cx="24" cy="19.5" r="1.1"/>
    <circle cx="11" cy="23.5" r="1.2"/>
    <circle cx="21" cy="23.5" r="1.2"/>
    <circle cx="16" cy="25.5" r="1.35"/>
    <circle cx="13.5" cy="14" r="1"/>
    <circle cx="18.5" cy="14" r="1"/>
    <circle cx="12" cy="16" r="1.05"/>
    <circle cx="20" cy="16" r="1.05"/>
    <circle cx="13.5" cy="18" r="1"/>
    <circle cx="18.5" cy="18" r="1"/>
    <circle cx="16" cy="16" r="1.15"/>
  </g>
</svg>
